<?xml version="1.0" encoding="UTF-8"?>
<!DOCTYPE svg PUBLIC "-//W3C//DTD SVG 1.1//EN" "http://www.w3.org/Graphics/SVG/1.1/DTD/svg11.dtd">
<svg version="1.2" width="125mm" height="125mm" viewBox="0 0 12500 12500" preserveAspectRatio="xMidYMid" fill-rule="evenodd" stroke-width="28.222" stroke-linejoin="round" xmlns="http://www.w3.org/2000/svg" xmlns:ooo="http://xml.openoffice.org/svg/export" xmlns:xlink="http://www.w3.org/1999/xlink" xmlns:presentation="http://sun.com/xmlns/staroffice/presentation" xmlns:smil="http://www.w3.org/2001/SMIL20/" xmlns:anim="urn:oasis:names:tc:opendocument:xmlns:animation:1.0" xml:space="preserve">
 <defs class="ClipPathGroup">
  <clipPath id="presentation_clip_path" clipPathUnits="userSpaceOnUse">
   <rect x="0" y="0" width="12500" height="12500"/>
  </clipPath>
  <clipPath id="presentation_clip_path_shrink" clipPathUnits="userSpaceOnUse">
   <rect x="12" y="12" width="12475" height="12475"/>
  </clipPath>
 </defs>
 <defs class="TextShapeIndex">
  <g ooo:slide="id1" ooo:id-list="id3 id4 id5 id6 id7 id8 id9 id10 id11 id12 id13 id14 id15 id16 id17 id18 id19 id20 id21 id22 id23 id24 id25 id26 id27 id28 id29 id30 id31 id32 id33 id34 id35 id36 id37 id38 id39 id40 id41 id42 id43 id44 id45 id46 id47 id48 id49 id50 id51"/>
 </defs>
 <defs class="EmbeddedBulletChars">
  <g id="bullet-char-template-57356" transform="scale(0.00048828125,-0.00048828125)">
   <path d="M 580,1141 L 1163,571 580,0 -4,571 580,1141 Z"/>
  </g>
  <g id="bullet-char-template-57354" transform="scale(0.00048828125,-0.00048828125)">
   <path d="M 8,1128 L 1137,1128 1137,0 8,0 8,1128 Z"/>
  </g>
  <g id="bullet-char-template-10146" transform="scale(0.00048828125,-0.00048828125)">
   <path d="M 174,0 L 602,739 174,1481 1456,739 174,0 Z M 1358,739 L 309,1346 659,739 1358,739 Z"/>
  </g>
  <g id="bullet-char-template-10132" transform="scale(0.00048828125,-0.00048828125)">
   <path d="M 2015,739 L 1276,0 717,0 1260,543 174,543 174,936 1260,936 717,1481 1274,1481 2015,739 Z"/>
  </g>
  <g id="bullet-char-template-10007" transform="scale(0.00048828125,-0.00048828125)">
   <path d="M 0,-2 C -7,14 -16,27 -25,37 L 356,567 C 262,823 215,952 215,954 215,979 228,992 255,992 264,992 276,990 289,987 310,991 331,999 354,1012 L 381,999 492,748 772,1049 836,1024 860,1049 C 881,1039 901,1025 922,1006 886,937 835,863 770,784 769,783 710,716 594,584 L 774,223 C 774,196 753,168 711,139 L 727,119 C 717,90 699,76 672,76 641,76 570,178 457,381 L 164,-76 C 142,-110 111,-127 72,-127 30,-127 9,-110 8,-76 1,-67 -2,-52 -2,-32 -2,-23 -1,-13 0,-2 Z"/>
  </g>
  <g id="bullet-char-template-10004" transform="scale(0.00048828125,-0.00048828125)">
   <path d="M 285,-33 C 182,-33 111,30 74,156 52,228 41,333 41,471 41,549 55,616 82,672 116,743 169,778 240,778 293,778 328,747 346,684 L 369,508 C 377,444 397,411 428,410 L 1163,1116 C 1174,1127 1196,1133 1229,1133 1271,1133 1292,1118 1292,1087 L 1292,965 C 1292,929 1282,901 1262,881 L 442,47 C 390,-6 338,-33 285,-33 Z"/>
  </g>
  <g id="bullet-char-template-9679" transform="scale(0.00048828125,-0.00048828125)">
   <path d="M 813,0 C 632,0 489,54 383,161 276,268 223,411 223,592 223,773 276,916 383,1023 489,1130 632,1184 813,1184 992,1184 1136,1130 1245,1023 1353,916 1407,772 1407,592 1407,412 1353,268 1245,161 1136,54 992,0 813,0 Z"/>
  </g>
  <g id="bullet-char-template-8226" transform="scale(0.00048828125,-0.00048828125)">
   <path d="M 346,457 C 273,457 209,483 155,535 101,586 74,649 74,723 74,796 101,859 155,911 209,963 273,989 346,989 419,989 480,963 531,910 582,859 608,796 608,723 608,648 583,586 532,535 482,483 420,457 346,457 Z"/>
  </g>
  <g id="bullet-char-template-8211" transform="scale(0.00048828125,-0.00048828125)">
   <path d="M -4,459 L 1135,459 1135,606 -4,606 -4,459 Z"/>
  </g>
  <g id="bullet-char-template-61548" transform="scale(0.00048828125,-0.00048828125)">
   <path d="M 173,740 C 173,903 231,1043 346,1159 462,1274 601,1332 765,1332 928,1332 1067,1274 1183,1159 1299,1043 1357,903 1357,740 1357,577 1299,437 1183,322 1067,206 928,148 765,148 601,148 462,206 346,322 231,437 173,577 173,740 Z"/>
  </g>
 </defs>
 <defs class="TextEmbeddedBitmaps"/>
 <g>
  <g id="id2" class="Master_Slide">
   <g id="bg-id2" class="Background"/>
   <g id="bo-id2" class="BackgroundObjects"/>
  </g>
 </g>
 <g class="SlideGroup">
  <g>
   <g id="container-id1">
    <g id="id1" class="Slide" clip-path="url(#presentation_clip_path)">
     <g class="Page">
      <g class="com.sun.star.drawing.ClosedBezierShape">
       <g id="id3">
        <rect class="BoundingBox" stroke="none" fill="none" x="0" y="0" width="12502" height="12502"/>
        <path fill="rgb(0,0,242)" stroke="none" d="M 11876,6250 C 11876,7286 11640,8166 11122,9063 10605,9960 9960,10605 9063,11122 8166,11640 7286,11876 6250,11876 5215,11876 4335,11640 3438,11122 2541,10605 1896,9960 1379,9063 861,8166 625,7286 625,6250 625,5215 861,4335 1379,3438 1896,2541 2541,1896 3438,1379 4335,861 5215,625 6250,625 7286,625 8166,861 9063,1379 9960,1896 10605,2541 11122,3438 11640,4335 11876,5215 11876,6250 Z"/>
        <path fill="none" stroke="rgb(255,0,0)" stroke-width="1250" stroke-linejoin="miter" d="M 11876,6250 C 11876,7286 11640,8166 11122,9063 10605,9960 9960,10605 9063,11122 8166,11640 7286,11876 6250,11876 5215,11876 4335,11640 3438,11122 2541,10605 1896,9960 1379,9063 861,8166 625,7286 625,6250 625,5215 861,4335 1379,3438 1896,2541 2541,1896 3438,1379 4335,861 5215,625 6250,625 7286,625 8166,861 9063,1379 9960,1896 10605,2541 11122,3438 11640,4335 11876,5215 11876,6250 Z"/>
       </g>
      </g>
      <g class="com.sun.star.drawing.PolyLineShape">
       <g id="id4">
        <rect class="BoundingBox" stroke="none" fill="none" x="3166" y="7048" width="6169" height="3131"/>
        <path fill="none" stroke="rgb(255,255,255)" stroke-width="63" stroke-linejoin="miter" d="M 9311,10153 L 6251,7093 3189,10155"/>
       </g>
      </g>
      <g class="com.sun.star.drawing.PolyLineShape">
       <g id="id5">
        <rect class="BoundingBox" stroke="none" fill="none" x="2265" y="3167" width="3129" height="6167"/>
        <path fill="none" stroke="rgb(255,255,255)" stroke-width="62" stroke-linejoin="miter" d="M 2289,9311 L 5349,6251 2287,3189"/>
       </g>
      </g>
      <g class="com.sun.star.drawing.PolyLineShape">
       <g id="id6">
        <rect class="BoundingBox" stroke="none" fill="none" x="3166" y="7048" width="6169" height="3131"/>
        <path fill="none" stroke="rgb(255,255,255)" stroke-width="63" stroke-linejoin="miter" d="M 9311,10153 L 6251,7093 3189,10155"/>
       </g>
      </g>
      <g class="com.sun.star.drawing.PolyLineShape">
       <g id="id7">
        <rect class="BoundingBox" stroke="none" fill="none" x="7071" y="3168" width="3131" height="6169"/>
        <path fill="none" stroke="rgb(255,255,255)" stroke-width="63" stroke-linejoin="miter" d="M 10176,3191 L 7116,6251 10178,9313"/>
       </g>
      </g>
      <g class="com.sun.star.drawing.PolyLineShape">
       <g id="id8">
        <rect class="BoundingBox" stroke="none" fill="none" x="3168" y="2264" width="6169" height="3131"/>
        <path fill="none" stroke="rgb(255,255,255)" stroke-width="63" stroke-linejoin="miter" d="M 3191,2289 L 6251,5349 9313,2287"/>
       </g>
      </g>
      <g class="com.sun.star.drawing.ClosedBezierShape">
       <g id="id9">
        <rect class="BoundingBox" stroke="none" fill="none" x="1187" y="1187" width="10091" height="10066"/>
        <path fill="none" stroke="rgb(255,255,255)" stroke-width="71" stroke-linejoin="miter" d="M 11241,6219 C 11241,7139 11031,7921 10569,8717 10108,9514 9535,10086 8736,10546 7938,11006 7154,11216 6232,11216 5310,11216 4526,11006 3727,10546 2929,10086 2355,9514 1894,8717 1433,7921 1223,7139 1223,6219 1223,5299 1433,4518 1894,3721 2355,2925 2929,2352 3727,1892 4526,1432 5310,1223 6232,1223 7154,1223 7938,1432 8736,1892 9535,2352 10108,2925 10569,3721 11031,4518 11241,5299 11241,6219 Z"/>
       </g>
      </g>
      <g class="com.sun.star.drawing.ClosedBezierShape">
       <g id="id10">
        <rect class="BoundingBox" stroke="none" fill="none" x="0" y="0" width="12502" height="12502"/>
        <path fill="rgb(0,0,242)" stroke="none" d="M 11876,6250 C 11876,7286 11640,8166 11122,9063 10605,9960 9960,10605 9063,11122 8166,11640 7286,11876 6250,11876 5215,11876 4335,11640 3438,11122 2541,10605 1896,9960 1379,9063 861,8166 625,7286 625,6250 625,5215 861,4335 1379,3438 1896,2541 2541,1896 3438,1379 4335,861 5215,625 6250,625 7286,625 8166,861 9063,1379 9960,1896 10605,2541 11122,3438 11640,4335 11876,5215 11876,6250 Z"/>
        <path fill="none" stroke="rgb(255,0,0)" stroke-width="1250" stroke-linejoin="miter" d="M 11876,6250 C 11876,7286 11640,8166 11122,9063 10605,9960 9960,10605 9063,11122 8166,11640 7286,11876 6250,11876 5215,11876 4335,11640 3438,11122 2541,10605 1896,9960 1379,9063 861,8166 625,7286 625,6250 625,5215 861,4335 1379,3438 1896,2541 2541,1896 3438,1379 4335,861 5215,625 6250,625 7286,625 8166,861 9063,1379 9960,1896 10605,2541 11122,3438 11640,4335 11876,5215 11876,6250 Z"/>
       </g>
      </g>
      <g class="com.sun.star.drawing.PolyLineShape">
       <g id="id11">
        <rect class="BoundingBox" stroke="none" fill="none" x="3166" y="7048" width="6169" height="3131"/>
        <path fill="none" stroke="rgb(255,255,255)" stroke-width="63" stroke-linejoin="miter" d="M 9311,10153 L 6251,7093 3189,10155"/>
       </g>
      </g>
      <g class="com.sun.star.drawing.PolyLineShape">
       <g id="id12">
        <rect class="BoundingBox" stroke="none" fill="none" x="2265" y="3167" width="3129" height="6167"/>
        <path fill="none" stroke="rgb(255,255,255)" stroke-width="62" stroke-linejoin="miter" d="M 2289,9311 L 5349,6251 2287,3189"/>
       </g>
      </g>
      <g class="com.sun.star.drawing.PolyLineShape">
       <g id="id13">
        <rect class="BoundingBox" stroke="none" fill="none" x="3166" y="7048" width="6169" height="3131"/>
        <path fill="none" stroke="rgb(255,255,255)" stroke-width="63" stroke-linejoin="miter" d="M 9311,10153 L 6251,7093 3189,10155"/>
       </g>
      </g>
      <g class="com.sun.star.drawing.PolyLineShape">
       <g id="id14">
        <rect class="BoundingBox" stroke="none" fill="none" x="7071" y="3168" width="3131" height="6169"/>
        <path fill="none" stroke="rgb(255,255,255)" stroke-width="63" stroke-linejoin="miter" d="M 10176,3191 L 7116,6251 10178,9313"/>
       </g>
      </g>
      <g class="com.sun.star.drawing.PolyLineShape">
       <g id="id15">
        <rect class="BoundingBox" stroke="none" fill="none" x="3168" y="2264" width="6169" height="3131"/>
        <path fill="none" stroke="rgb(255,255,255)" stroke-width="63" stroke-linejoin="miter" d="M 3191,2289 L 6251,5349 9313,2287"/>
       </g>
      </g>
      <g class="com.sun.star.drawing.ClosedBezierShape">
       <g id="id16">
        <rect class="BoundingBox" stroke="none" fill="none" x="1187" y="1187" width="10091" height="10066"/>
        <path fill="none" stroke="rgb(255,255,255)" stroke-width="71" stroke-linejoin="miter" d="M 11241,6219 C 11241,7139 11031,7921 10569,8717 10108,9514 9535,10086 8736,10546 7938,11006 7154,11216 6232,11216 5310,11216 4526,11006 3727,10546 2929,10086 2355,9514 1894,8717 1433,7921 1223,7139 1223,6219 1223,5299 1433,4518 1894,3721 2355,2925 2929,2352 3727,1892 4526,1432 5310,1223 6232,1223 7154,1223 7938,1432 8736,1892 9535,2352 10108,2925 10569,3721 11031,4518 11241,5299 11241,6219 Z"/>
       </g>
      </g>
      <g class="com.sun.star.drawing.ClosedBezierShape">
       <g id="id17">
        <rect class="BoundingBox" stroke="none" fill="none" x="0" y="0" width="12502" height="12502"/>
        <path fill="rgb(0,0,242)" stroke="none" d="M 11876,6250 C 11876,7286 11640,8166 11122,9063 10605,9960 9960,10605 9063,11122 8166,11640 7286,11876 6250,11876 5215,11876 4335,11640 3438,11122 2541,10605 1896,9960 1379,9063 861,8166 625,7286 625,6250 625,5215 861,4335 1379,3438 1896,2541 2541,1896 3438,1379 4335,861 5215,625 6250,625 7286,625 8166,861 9063,1379 9960,1896 10605,2541 11122,3438 11640,4335 11876,5215 11876,6250 Z"/>
        <path fill="none" stroke="rgb(255,0,0)" stroke-width="1250" stroke-linejoin="miter" d="M 11876,6250 C 11876,7286 11640,8166 11122,9063 10605,9960 9960,10605 9063,11122 8166,11640 7286,11876 6250,11876 5215,11876 4335,11640 3438,11122 2541,10605 1896,9960 1379,9063 861,8166 625,7286 625,6250 625,5215 861,4335 1379,3438 1896,2541 2541,1896 3438,1379 4335,861 5215,625 6250,625 7286,625 8166,861 9063,1379 9960,1896 10605,2541 11122,3438 11640,4335 11876,5215 11876,6250 Z"/>
       </g>
      </g>
      <g class="com.sun.star.drawing.PolyLineShape">
       <g id="id18">
        <rect class="BoundingBox" stroke="none" fill="none" x="3166" y="7048" width="6169" height="3131"/>
        <path fill="none" stroke="rgb(255,255,255)" stroke-width="63" stroke-linejoin="miter" d="M 9311,10153 L 6251,7093 3189,10155"/>
       </g>
      </g>
      <g class="com.sun.star.drawing.PolyLineShape">
       <g id="id19">
        <rect class="BoundingBox" stroke="none" fill="none" x="2265" y="3167" width="3129" height="6167"/>
        <path fill="none" stroke="rgb(255,255,255)" stroke-width="62" stroke-linejoin="miter" d="M 2289,9311 L 5349,6251 2287,3189"/>
       </g>
      </g>
      <g class="com.sun.star.drawing.PolyLineShape">
       <g id="id20">
        <rect class="BoundingBox" stroke="none" fill="none" x="3166" y="7048" width="6169" height="3131"/>
        <path fill="none" stroke="rgb(255,255,255)" stroke-width="63" stroke-linejoin="miter" d="M 9311,10153 L 6251,7093 3189,10155"/>
       </g>
      </g>
      <g class="com.sun.star.drawing.PolyLineShape">
       <g id="id21">
        <rect class="BoundingBox" stroke="none" fill="none" x="7071" y="3168" width="3131" height="6169"/>
        <path fill="none" stroke="rgb(255,255,255)" stroke-width="63" stroke-linejoin="miter" d="M 10176,3191 L 7116,6251 10178,9313"/>
       </g>
      </g>
      <g class="com.sun.star.drawing.PolyLineShape">
       <g id="id22">
        <rect class="BoundingBox" stroke="none" fill="none" x="3168" y="2264" width="6169" height="3131"/>
        <path fill="none" stroke="rgb(255,255,255)" stroke-width="63" stroke-linejoin="miter" d="M 3191,2289 L 6251,5349 9313,2287"/>
       </g>
      </g>
      <g class="com.sun.star.drawing.ClosedBezierShape">
       <g id="id23">
        <rect class="BoundingBox" stroke="none" fill="none" x="1187" y="1187" width="10091" height="10066"/>
        <path fill="none" stroke="rgb(255,255,255)" stroke-width="71" stroke-linejoin="miter" d="M 11241,6219 C 11241,7139 11031,7921 10569,8717 10108,9514 9535,10086 8736,10546 7938,11006 7154,11216 6232,11216 5310,11216 4526,11006 3727,10546 2929,10086 2355,9514 1894,8717 1433,7921 1223,7139 1223,6219 1223,5299 1433,4518 1894,3721 2355,2925 2929,2352 3727,1892 4526,1432 5310,1223 6232,1223 7154,1223 7938,1432 8736,1892 9535,2352 10108,2925 10569,3721 11031,4518 11241,5299 11241,6219 Z"/>
       </g>
      </g>
      <g class="com.sun.star.drawing.LineShape">
       <g id="id24">
        <rect class="BoundingBox" stroke="none" fill="none" x="10131" y="9206" width="110" height="102"/>
        <path fill="none" stroke="rgb(255,255,255)" stroke-width="62" stroke-linejoin="miter" d="M 10149,9281 L 10222,9232"/>
       </g>
      </g>
      <g class="com.sun.star.drawing.ClosedBezierShape">
       <g id="id25">
        <rect class="BoundingBox" stroke="none" fill="none" x="0" y="0" width="12502" height="12502"/>
        <path fill="rgb(0,0,242)" stroke="none" d="M 11876,6250 C 11876,7286 11640,8166 11122,9063 10605,9960 9960,10605 9063,11122 8166,11640 7286,11876 6250,11876 5215,11876 4335,11640 3438,11122 2541,10605 1896,9960 1379,9063 861,8166 625,7286 625,6250 625,5215 861,4335 1379,3438 1896,2541 2541,1896 3438,1379 4335,861 5215,625 6250,625 7286,625 8166,861 9063,1379 9960,1896 10605,2541 11122,3438 11640,4335 11876,5215 11876,6250 Z"/>
        <path fill="none" stroke="rgb(255,0,0)" stroke-width="1250" stroke-linejoin="miter" d="M 11876,6250 C 11876,7286 11640,8166 11122,9063 10605,9960 9960,10605 9063,11122 8166,11640 7286,11876 6250,11876 5215,11876 4335,11640 3438,11122 2541,10605 1896,9960 1379,9063 861,8166 625,7286 625,6250 625,5215 861,4335 1379,3438 1896,2541 2541,1896 3438,1379 4335,861 5215,625 6250,625 7286,625 8166,861 9063,1379 9960,1896 10605,2541 11122,3438 11640,4335 11876,5215 11876,6250 Z"/>
       </g>
      </g>
      <g class="com.sun.star.drawing.PolyLineShape">
       <g id="id26">
        <rect class="BoundingBox" stroke="none" fill="none" x="3166" y="7048" width="6169" height="3131"/>
        <path fill="none" stroke="rgb(255,255,255)" stroke-width="63" stroke-linejoin="miter" d="M 9311,10153 L 6251,7093 3189,10155"/>
       </g>
      </g>
      <g class="com.sun.star.drawing.PolyLineShape">
       <g id="id27">
        <rect class="BoundingBox" stroke="none" fill="none" x="2265" y="3167" width="3129" height="6167"/>
        <path fill="none" stroke="rgb(255,255,255)" stroke-width="62" stroke-linejoin="miter" d="M 2289,9311 L 5349,6251 2287,3189"/>
       </g>
      </g>
      <g class="com.sun.star.drawing.PolyLineShape">
       <g id="id28">
        <rect class="BoundingBox" stroke="none" fill="none" x="3166" y="7048" width="6169" height="3131"/>
        <path fill="none" stroke="rgb(255,255,255)" stroke-width="63" stroke-linejoin="miter" d="M 9311,10153 L 6251,7093 3189,10155"/>
       </g>
      </g>
      <g class="com.sun.star.drawing.PolyLineShape">
       <g id="id29">
        <rect class="BoundingBox" stroke="none" fill="none" x="7071" y="3168" width="3131" height="6169"/>
        <path fill="none" stroke="rgb(255,255,255)" stroke-width="63" stroke-linejoin="miter" d="M 10176,3191 L 7116,6251 10178,9313"/>
       </g>
      </g>
      <g class="com.sun.star.drawing.PolyLineShape">
       <g id="id30">
        <rect class="BoundingBox" stroke="none" fill="none" x="3168" y="2264" width="6169" height="3131"/>
        <path fill="none" stroke="rgb(255,255,255)" stroke-width="63" stroke-linejoin="miter" d="M 3191,2289 L 6251,5349 9313,2287"/>
       </g>
      </g>
      <g class="com.sun.star.drawing.ClosedBezierShape">
       <g id="id31">
        <rect class="BoundingBox" stroke="none" fill="none" x="1187" y="1187" width="10091" height="10066"/>
        <path fill="none" stroke="rgb(255,255,255)" stroke-width="71" stroke-linejoin="miter" d="M 11241,6219 C 11241,7139 11031,7921 10569,8717 10108,9514 9535,10086 8736,10546 7938,11006 7154,11216 6232,11216 5310,11216 4526,11006 3727,10546 2929,10086 2355,9514 1894,8717 1433,7921 1223,7139 1223,6219 1223,5299 1433,4518 1894,3721 2355,2925 2929,2352 3727,1892 4526,1432 5310,1223 6232,1223 7154,1223 7938,1432 8736,1892 9535,2352 10108,2925 10569,3721 11031,4518 11241,5299 11241,6219 Z"/>
       </g>
      </g>
      <g class="com.sun.star.drawing.ClosedBezierShape">
       <g id="id32">
        <rect class="BoundingBox" stroke="none" fill="none" x="0" y="0" width="12502" height="12502"/>
        <path fill="rgb(0,0,242)" stroke="none" d="M 11876,6250 C 11876,7286 11640,8166 11122,9063 10605,9960 9960,10605 9063,11122 8166,11640 7286,11876 6250,11876 5215,11876 4335,11640 3438,11122 2541,10605 1896,9960 1379,9063 861,8166 625,7286 625,6250 625,5215 861,4335 1379,3438 1896,2541 2541,1896 3438,1379 4335,861 5215,625 6250,625 7286,625 8166,861 9063,1379 9960,1896 10605,2541 11122,3438 11640,4335 11876,5215 11876,6250 Z"/>
        <path fill="none" stroke="rgb(255,0,0)" stroke-width="1250" stroke-linejoin="miter" d="M 11876,6250 C 11876,7286 11640,8166 11122,9063 10605,9960 9960,10605 9063,11122 8166,11640 7286,11876 6250,11876 5215,11876 4335,11640 3438,11122 2541,10605 1896,9960 1379,9063 861,8166 625,7286 625,6250 625,5215 861,4335 1379,3438 1896,2541 2541,1896 3438,1379 4335,861 5215,625 6250,625 7286,625 8166,861 9063,1379 9960,1896 10605,2541 11122,3438 11640,4335 11876,5215 11876,6250 Z"/>
       </g>
      </g>
      <g class="com.sun.star.drawing.PolyLineShape">
       <g id="id33">
        <rect class="BoundingBox" stroke="none" fill="none" x="3166" y="7048" width="6169" height="3131"/>
        <path fill="none" stroke="rgb(255,255,255)" stroke-width="63" stroke-linejoin="miter" d="M 9311,10153 L 6251,7093 3189,10155"/>
       </g>
      </g>
      <g class="com.sun.star.drawing.PolyLineShape">
       <g id="id34">
        <rect class="BoundingBox" stroke="none" fill="none" x="2265" y="3167" width="3129" height="6167"/>
        <path fill="none" stroke="rgb(255,255,255)" stroke-width="62" stroke-linejoin="miter" d="M 2289,9311 L 5349,6251 2287,3189"/>
       </g>
      </g>
      <g class="com.sun.star.drawing.PolyLineShape">
       <g id="id35">
        <rect class="BoundingBox" stroke="none" fill="none" x="3166" y="7048" width="6169" height="3131"/>
        <path fill="none" stroke="rgb(255,255,255)" stroke-width="63" stroke-linejoin="miter" d="M 9311,10153 L 6251,7093 3189,10155"/>
       </g>
      </g>
      <g class="com.sun.star.drawing.PolyLineShape">
       <g id="id36">
        <rect class="BoundingBox" stroke="none" fill="none" x="7071" y="3168" width="3131" height="6169"/>
        <path fill="none" stroke="rgb(255,255,255)" stroke-width="63" stroke-linejoin="miter" d="M 10176,3191 L 7116,6251 10178,9313"/>
       </g>
      </g>
      <g class="com.sun.star.drawing.PolyLineShape">
       <g id="id37">
        <rect class="BoundingBox" stroke="none" fill="none" x="3168" y="2264" width="6169" height="3131"/>
        <path fill="none" stroke="rgb(255,255,255)" stroke-width="63" stroke-linejoin="miter" d="M 3191,2289 L 6251,5349 9313,2287"/>
       </g>
      </g>
      <g class="com.sun.star.drawing.ClosedBezierShape">
       <g id="id38">
        <rect class="BoundingBox" stroke="none" fill="none" x="1187" y="1187" width="10091" height="10066"/>
        <path fill="none" stroke="rgb(255,255,255)" stroke-width="71" stroke-linejoin="miter" d="M 11241,6219 C 11241,7139 11031,7921 10569,8717 10108,9514 9535,10086 8736,10546 7938,11006 7154,11216 6232,11216 5310,11216 4526,11006 3727,10546 2929,10086 2355,9514 1894,8717 1433,7921 1223,7139 1223,6219 1223,5299 1433,4518 1894,3721 2355,2925 2929,2352 3727,1892 4526,1432 5310,1223 6232,1223 7154,1223 7938,1432 8736,1892 9535,2352 10108,2925 10569,3721 11031,4518 11241,5299 11241,6219 Z"/>
       </g>
      </g>
      <g class="com.sun.star.drawing.ClosedBezierShape">
       <g id="id39">
        <rect class="BoundingBox" stroke="none" fill="none" x="0" y="0" width="12502" height="12502"/>
        <path fill="rgb(0,0,242)" stroke="none" d="M 11876,6250 C 11876,7286 11640,8166 11122,9063 10605,9960 9960,10605 9063,11122 8166,11640 7286,11876 6250,11876 5215,11876 4335,11640 3438,11122 2541,10605 1896,9960 1379,9063 861,8166 625,7286 625,6250 625,5215 861,4335 1379,3438 1896,2541 2541,1896 3438,1379 4335,861 5215,625 6250,625 7286,625 8166,861 9063,1379 9960,1896 10605,2541 11122,3438 11640,4335 11876,5215 11876,6250 Z"/>
        <path fill="none" stroke="rgb(255,0,0)" stroke-width="1250" stroke-linejoin="miter" d="M 11876,6250 C 11876,7286 11640,8166 11122,9063 10605,9960 9960,10605 9063,11122 8166,11640 7286,11876 6250,11876 5215,11876 4335,11640 3438,11122 2541,10605 1896,9960 1379,9063 861,8166 625,7286 625,6250 625,5215 861,4335 1379,3438 1896,2541 2541,1896 3438,1379 4335,861 5215,625 6250,625 7286,625 8166,861 9063,1379 9960,1896 10605,2541 11122,3438 11640,4335 11876,5215 11876,6250 Z"/>
       </g>
      </g>
      <g class="com.sun.star.drawing.PolyLineShape">
       <g id="id40">
        <rect class="BoundingBox" stroke="none" fill="none" x="3166" y="7048" width="6169" height="3131"/>
        <path fill="none" stroke="rgb(255,255,255)" stroke-width="63" stroke-linejoin="miter" d="M 9311,10153 L 6251,7093 3189,10155"/>
       </g>
      </g>
      <g class="com.sun.star.drawing.PolyLineShape">
       <g id="id41">
        <rect class="BoundingBox" stroke="none" fill="none" x="2265" y="3167" width="3129" height="6167"/>
        <path fill="none" stroke="rgb(255,255,255)" stroke-width="62" stroke-linejoin="miter" d="M 2289,9311 L 5349,6251 2287,3189"/>
       </g>
      </g>
      <g class="com.sun.star.drawing.PolyLineShape">
       <g id="id42">
        <rect class="BoundingBox" stroke="none" fill="none" x="3166" y="7048" width="6169" height="3131"/>
        <path fill="none" stroke="rgb(255,255,255)" stroke-width="63" stroke-linejoin="miter" d="M 9311,10153 L 6251,7093 3189,10155"/>
       </g>
      </g>
      <g class="com.sun.star.drawing.PolyLineShape">
       <g id="id43">
        <rect class="BoundingBox" stroke="none" fill="none" x="7071" y="3168" width="3131" height="6169"/>
        <path fill="none" stroke="rgb(255,255,255)" stroke-width="63" stroke-linejoin="miter" d="M 10176,3191 L 7116,6251 10178,9313"/>
       </g>
      </g>
      <g class="com.sun.star.drawing.PolyLineShape">
       <g id="id44">
        <rect class="BoundingBox" stroke="none" fill="none" x="3168" y="2264" width="6169" height="3131"/>
        <path fill="none" stroke="rgb(255,255,255)" stroke-width="63" stroke-linejoin="miter" d="M 3191,2289 L 6251,5349 9313,2287"/>
       </g>
      </g>
      <g class="com.sun.star.drawing.ClosedBezierShape">
       <g id="id45">
        <rect class="BoundingBox" stroke="none" fill="none" x="1187" y="1187" width="10091" height="10066"/>
        <path fill="none" stroke="rgb(255,255,255)" stroke-width="71" stroke-linejoin="miter" d="M 11241,6219 C 11241,7139 11031,7921 10569,8717 10108,9514 9535,10086 8736,10546 7938,11006 7154,11216 6232,11216 5310,11216 4526,11006 3727,10546 2929,10086 2355,9514 1894,8717 1433,7921 1223,7139 1223,6219 1223,5299 1433,4518 1894,3721 2355,2925 2929,2352 3727,1892 4526,1432 5310,1223 6232,1223 7154,1223 7938,1432 8736,1892 9535,2352 10108,2925 10569,3721 11031,4518 11241,5299 11241,6219 Z"/>
       </g>
      </g>
      <g class="com.sun.star.drawing.PolyPolygonShape">
       <g id="id46">
        <rect class="BoundingBox" stroke="none" fill="none" x="1811" y="1827" width="8879" height="8823"/>
        <path fill="rgb(255,0,3)" stroke="none" d="M 5806,5797 L 9800,1828 10688,2710 2700,10648 1812,9766 5806,5797 Z"/>
        <path fill="none" stroke="rgb(255,0,0)" d="M 5806,5797 L 9800,1828 10688,2710 2700,10648 1812,9766 5806,5797 Z"/>
       </g>
      </g>
      <g class="com.sun.star.drawing.PolyPolygonShape">
       <g id="id47">
        <rect class="BoundingBox" stroke="none" fill="none" x="1812" y="1827" width="8879" height="8823"/>
        <path fill="rgb(255,0,3)" stroke="none" d="M 5807,6679 L 1813,2710 2701,1828 10689,9766 9801,10648 5807,6679 Z"/>
        <path fill="none" stroke="rgb(255,0,0)" d="M 5807,6679 L 1813,2710 2701,1828 10689,9766 9801,10648 5807,6679 Z"/>
       </g>
      </g>
      <g class="com.sun.star.drawing.PolyLineShape">
       <g id="id48">
        <rect class="BoundingBox" stroke="none" fill="none" x="2264" y="3166" width="3131" height="6169"/>
        <path fill="none" stroke="rgb(255,255,255)" stroke-width="63" stroke-linejoin="miter" d="M 2289,9311 L 5349,6251 2287,3189"/>
       </g>
      </g>
      <g class="com.sun.star.drawing.PolyLineShape">
       <g id="id49">
        <rect class="BoundingBox" stroke="none" fill="none" x="3166" y="7048" width="6169" height="3131"/>
        <path fill="none" stroke="rgb(255,255,255)" stroke-width="63" stroke-linejoin="miter" d="M 9311,10153 L 6251,7093 3189,10155"/>
       </g>
      </g>
      <g class="com.sun.star.drawing.PolyLineShape">
       <g id="id50">
        <rect class="BoundingBox" stroke="none" fill="none" x="7071" y="3168" width="3131" height="6169"/>
        <path fill="none" stroke="rgb(255,255,255)" stroke-width="63" stroke-linejoin="miter" d="M 10176,3191 L 7116,6251 10178,9313"/>
       </g>
      </g>
      <g class="com.sun.star.drawing.PolyLineShape">
       <g id="id51">
        <rect class="BoundingBox" stroke="none" fill="none" x="3168" y="2264" width="6169" height="3131"/>
        <path fill="none" stroke="rgb(255,255,255)" stroke-width="63" stroke-linejoin="miter" d="M 3191,2289 L 6251,5349 9313,2287"/>
       </g>
      </g>
     </g>
    </g>
   </g>
  </g>
 </g>
</svg>